<svg width="648" height="122" viewBox="0 0 648 122" fill="none" xmlns="http://www.w3.org/2000/svg">
<path d="M232.705 15.84V31.8H207.625V99H188.905V31.8H163.825V15.84H232.705ZM289.096 96.84C286.056 97.72 282.136 98.52 277.336 99.24C272.536 100.04 267.496 100.44 262.216 100.44C256.856 100.44 252.376 99.72 248.776 98.28C245.256 96.84 242.456 94.84 240.376 92.28C238.296 89.64 236.816 86.52 235.936 82.92C235.056 79.32 234.616 75.36 234.616 71.04V35.88H252.496V68.88C252.496 74.64 253.256 78.8 254.776 81.36C256.296 83.92 259.136 85.2 263.296 85.2C264.576 85.2 265.936 85.16 267.376 85.08C268.816 84.92 270.096 84.76 271.216 84.6V35.88H289.096V96.84ZM305.28 20.16L323.16 17.28V35.88H344.64V50.76H323.16V72.96C323.16 76.72 323.8 79.72 325.08 81.96C326.44 84.2 329.12 85.32 333.12 85.32C335.04 85.32 337 85.16 339 84.84C341.08 84.44 342.96 83.92 344.64 83.28L347.16 97.2C345 98.08 342.6 98.84 339.96 99.48C337.32 100.12 334.08 100.44 330.24 100.44C325.36 100.44 321.32 99.8 318.12 98.52C314.92 97.16 312.36 95.32 310.44 93C308.52 90.6 307.16 87.72 306.36 84.36C305.64 81 305.28 77.28 305.28 73.2V20.16ZM415.896 67.32C415.896 72.28 415.176 76.84 413.736 81C412.296 85.08 410.216 88.6 407.496 91.56C404.776 94.44 401.496 96.68 397.656 98.28C393.896 99.88 389.656 100.68 384.936 100.68C380.296 100.68 376.056 99.88 372.216 98.28C368.456 96.68 365.216 94.44 362.496 91.56C359.776 88.6 357.656 85.08 356.136 81C354.616 76.84 353.856 72.28 353.856 67.32C353.856 62.36 354.616 57.84 356.136 53.76C357.736 49.68 359.896 46.2 362.616 43.32C365.416 40.44 368.696 38.2 372.456 36.6C376.296 35 380.456 34.2 384.936 34.2C389.496 34.2 393.656 35 397.416 36.6C401.256 38.2 404.536 40.44 407.256 43.32C409.976 46.2 412.096 49.68 413.616 53.76C415.136 57.84 415.896 62.36 415.896 67.32ZM397.656 67.32C397.656 61.8 396.536 57.48 394.296 54.36C392.136 51.16 389.016 49.56 384.936 49.56C380.856 49.56 377.696 51.16 375.456 54.36C373.216 57.48 372.096 61.8 372.096 67.32C372.096 72.84 373.216 77.24 375.456 80.52C377.696 83.72 380.856 85.32 384.936 85.32C389.016 85.32 392.136 83.72 394.296 80.52C396.536 77.24 397.656 72.84 397.656 67.32ZM486.627 99C485.747 96.12 484.747 93.16 483.627 90.12C482.587 87.08 481.547 84.04 480.507 81H448.107C447.067 84.04 445.987 87.08 444.867 90.12C443.827 93.16 442.867 96.12 441.987 99H422.547C425.667 90.04 428.627 81.76 431.427 74.16C434.227 66.56 436.947 59.4 439.587 52.68C442.307 45.96 444.947 39.6 447.507 33.6C450.147 27.52 452.867 21.6 455.667 15.84H473.547C476.267 21.6 478.947 27.52 481.587 33.6C484.227 39.6 486.867 45.96 489.507 52.68C492.227 59.4 494.987 66.56 497.787 74.16C500.587 81.76 503.547 90.04 506.667 99H486.627ZM464.187 34.68C463.787 35.88 463.187 37.52 462.387 39.6C461.587 41.68 460.667 44.08 459.627 46.8C458.587 49.52 457.427 52.52 456.147 55.8C454.947 59.08 453.707 62.52 452.427 66.12H476.067C474.787 62.52 473.547 59.08 472.347 55.8C471.147 52.52 469.987 49.52 468.867 46.8C467.827 44.08 466.907 41.68 466.107 39.6C465.307 37.52 464.667 35.88 464.187 34.68ZM556.671 67.92C556.671 62.4 555.431 58 552.951 54.72C550.471 51.36 546.791 49.68 541.911 49.68C540.311 49.68 538.831 49.76 537.471 49.92C536.111 50 534.991 50.12 534.111 50.28V82.56C535.231 83.28 536.671 83.88 538.431 84.36C540.271 84.84 542.111 85.08 543.951 85.08C552.431 85.08 556.671 79.36 556.671 67.92ZM574.911 67.44C574.911 72.32 574.311 76.76 573.111 80.76C571.911 84.76 570.151 88.2 567.831 91.08C565.511 93.96 562.631 96.2 559.191 97.8C555.751 99.4 551.791 100.2 547.311 100.2C544.831 100.2 542.511 99.96 540.351 99.48C538.191 99 536.111 98.32 534.111 97.44V121.2H516.231V38.04C517.831 37.56 519.671 37.12 521.751 36.72C523.831 36.24 525.991 35.84 528.231 35.52C530.551 35.2 532.871 34.96 535.191 34.8C537.591 34.56 539.871 34.44 542.031 34.44C547.231 34.44 551.871 35.24 555.951 36.84C560.031 38.36 563.471 40.56 566.271 43.44C569.071 46.24 571.191 49.68 572.631 53.76C574.151 57.84 574.911 62.4 574.911 67.44ZM629.093 67.92C629.093 62.4 627.853 58 625.373 54.72C622.893 51.36 619.213 49.68 614.333 49.68C612.733 49.68 611.253 49.76 609.893 49.92C608.533 50 607.413 50.12 606.533 50.28V82.56C607.653 83.28 609.093 83.88 610.853 84.36C612.693 84.84 614.533 85.08 616.373 85.08C624.853 85.08 629.093 79.36 629.093 67.92ZM647.333 67.44C647.333 72.32 646.733 76.76 645.533 80.76C644.333 84.76 642.573 88.2 640.253 91.08C637.933 93.96 635.053 96.2 631.613 97.8C628.173 99.4 624.213 100.2 619.733 100.2C617.253 100.2 614.933 99.96 612.773 99.48C610.613 99 608.533 98.32 606.533 97.44V121.2H588.653V38.04C590.253 37.56 592.093 37.12 594.173 36.72C596.253 36.24 598.413 35.84 600.653 35.52C602.973 35.2 605.293 34.96 607.613 34.8C610.013 34.56 612.293 34.44 614.453 34.44C619.653 34.44 624.293 35.24 628.373 36.84C632.453 38.36 635.893 40.56 638.693 43.44C641.493 46.24 643.613 49.68 645.053 53.76C646.573 57.84 647.333 62.4 647.333 67.44Z" fill="url(#paint0_linear)"/>
<path d="M5.10938 40.875L54.5 13.625L103.891 40.875L54.5 68.125L5.10938 40.875Z" stroke="#C6C6C6" stroke-width="10.2188" stroke-linecap="round" stroke-linejoin="round"/>
<path d="M79.1953 102.188V54.5L54.4999 40.875" stroke="#C6C6C6" stroke-width="10.2188" stroke-linecap="round" stroke-linejoin="round"/>
<path d="M95.375 45.5732V70.3354C95.3766 71.136 95.0947 71.9113 94.5791 72.5238C91.3073 76.3948 77.9476 90.2656 54.5 90.2656C31.0525 90.2656 17.6928 76.3948 14.4209 72.5238C13.9053 71.9113 13.6234 71.136 13.625 70.3354V45.5732" stroke="#C6C6C6" stroke-width="10.2188" stroke-linecap="round" stroke-linejoin="round"/>
<defs>
<linearGradient id="paint0_linear" x1="230" y1="17.4999" x2="624" y2="113" gradientUnits="userSpaceOnUse">
<stop stop-color="#C6C6C6"/>
<stop offset="1" stop-color="#8B8B8B"/>
</linearGradient>
</defs>
</svg>
